# xmcd
#
# Track frame offsets: 
#        150
#        17854
#        34883
#        49885
#        63905
#        80711
#        96371
#        120580
#        136038
#        151156
#        172437
#        189296
#        207529
#        225058
#        243731
#        260335
#        270792
#        291873
#
# Disc length: 4212 seconds
#
# Revision: 0
# Processed by: cddbd v1.5.1PL0 Copyright (c) Steve Scherf et al.
# Submitted via: ExactAudioCopy v0.95a5
#
DISCID=f9107212
DTITLE=Various Artist - Hott Country 106
DYEAR=2004
DGENRE=Country
TTITLE0=Clark, Terri - The World Needs A Drink
TTITLE1=Willmon, Trent - Home Sweet Holiday
TTITLE2=Walker, Doc - Forgive Me (For Not Giving A Damn)
TTITLE3=Bates, Jeff - Long Slow Kisses
TTITLE4=Rascal Flatts - Bless The Broken Road
TTITLE5=Womack, Lee Ann - I May Hate Myself In The Morning
TTITLE6=Evans, Sara - Tonight
TTITLE7=Montgomery and Gentry - Gone
TTITLE8=Pritchett, Aaron - John Roland Wood
TTITLE9=Roberts, Julie - The Chance
TTITLE10=Wayne, Jimmy - Paper Angels
TTITLE11=Cross Canadian Ragweed - Alabama (New Version)
TTITLE12=Brooks and Dunn - It's Getting Better All The Time [Radio Edit]
TTITLE13=McBride, Martina - God's Will [Radio Edit]
TTITLE14=Travis, Randy - Four Walls
TTITLE15=Nichols, Joe - What's A Guy Gotta Do
TTITLE16=Urban, Keith - Better Life
TTITLE17=Chesney, Kenny - Anything But Mine
EXTD=
EXTT0=
EXTT1=
EXTT2=
EXTT3=
EXTT4=
EXTT5=
EXTT6=
EXTT7=
EXTT8=
EXTT9=
EXTT10=
EXTT11=
EXTT12=
EXTT13=
EXTT14=
EXTT15=
EXTT16=
EXTT17=
PLAYORDER=
